<svg xmlns="http://www.w3.org/2000/svg" width="489.059" height="315.496" viewBox="-6749.529 -16484.248 489.059 315.496"><g data-name="CompositeLayer"><g data-name="Group 510"><path d="M-6749.53-16169.938v-68.76h47.133v11.63h-33.25v16.273h28.701v11.631h-28.701v29.226h-13.882Z" fill="#3693d9" fill-rule="evenodd" data-name="Path 13"/><path d="M-6696.548-16226.507v-12.194h13.177v12.194h-13.177Zm0 56.559v-49.806h13.177v49.814l-13.177-.008Z" fill="#3693d9" fill-rule="evenodd" data-name="Path 14"/><path d="M-6630.06-16169.949h-13.178v-25.42a39.273 39.273 0 0 0-.845-10.443 7.32 7.32 0 0 0-2.744-3.682 7.847 7.847 0 0 0-4.571-1.314 10.563 10.563 0 0 0-6.144 1.876 9.45 9.45 0 0 0-3.73 4.97 42.964 42.964 0 0 0-1.008 11.442v22.558h-13.177v-49.79h12.24v7.315a20.413 20.413 0 0 1 24.386-6.87 13.374 13.374 0 0 1 5.464 4 14.547 14.547 0 0 1 2.58 5.535c.56 2.92.805 5.892.726 8.864v30.96Z" fill="#3693d9" fill-rule="evenodd" data-name="Path 15"/><path d="M-6622.194-16226.507v-12.194h13.178v12.194h-13.178Zm0 56.559v-49.806h13.178v49.814l-13.178-.008Z" fill="#3693d9" fill-rule="evenodd" data-name="Path 16"/><path d="m-6605.652-16184.16 13.226-2.015a9.688 9.688 0 0 0 3.425 5.838 11.555 11.555 0 0 0 7.222 2 13.037 13.037 0 0 0 7.69-1.876 4.19 4.19 0 0 0 1.736-3.517 3.462 3.462 0 0 0-.938-2.487 10.52 10.52 0 0 0-4.408-1.736c-10.63-2.343-17.37-4.485-20.222-6.424a12.832 12.832 0 0 1-5.91-11.209 13.816 13.816 0 0 1 5.112-10.888c3.407-2.938 8.692-4.408 15.853-4.41 6.815 0 11.88 1.112 15.195 3.334a17.018 17.018 0 0 1 6.847 9.849l-12.429 2.298a7.69 7.69 0 0 0-3.024-4.456 11.064 11.064 0 0 0-6.356-1.555 14.325 14.325 0 0 0-7.458 1.453 3.123 3.123 0 0 0-1.5 2.667 2.911 2.911 0 0 0 1.314 2.39c1.185.876 5.289 2.11 12.31 3.705 7.023 1.594 11.924 3.548 14.703 5.862a12.184 12.184 0 0 1 4.126 9.802 15.044 15.044 0 0 1-5.722 11.778c-3.813 3.282-9.457 4.923-16.93 4.922a27.779 27.779 0 0 1-16.11-4.127 19.016 19.016 0 0 1-7.752-11.197Z" fill="#3693d9" fill-rule="evenodd" data-name="Path 17"/><path d="M-6539.963-16238.7v25.277a19.749 19.749 0 0 1 23.449-5.778 13.413 13.413 0 0 1 5.51 4.313 15.653 15.653 0 0 1 2.534 5.816c.541 3.269.77 6.582.68 9.895v29.237h-13.178v-26.31a39.024 39.024 0 0 0-.748-9.942 6.524 6.524 0 0 0-2.65-3.354 8.522 8.522 0 0 0-4.76-1.244 10.923 10.923 0 0 0-5.861 1.596 9.201 9.201 0 0 0-3.778 4.806 28.709 28.709 0 0 0-1.196 9.498v24.95h-13.177v-68.76h13.175Z" fill="#3693d9" fill-rule="evenodd" data-name="Path 18"/><path d="m-6502.503-16192.037 8.582-.749a18.965 18.965 0 0 0 2.837 8.464 15.493 15.493 0 0 0 6.918 5.347 26.188 26.188 0 0 0 10.553 2.04c3.134.056 6.25-.472 9.191-1.556a12.745 12.745 0 0 0 5.933-4.244 9.84 9.84 0 0 0 1.947-5.884 8.95 8.95 0 0 0-1.876-5.651 13.893 13.893 0 0 0-6.191-4.058 121.09 121.09 0 0 0-12.24-3.353 62.518 62.518 0 0 1-13.27-4.291 18.612 18.612 0 0 1-7.334-6.402 15.691 15.691 0 0 1-2.415-8.558 17.464 17.464 0 0 1 2.955-9.73 18.287 18.287 0 0 1 8.63-6.872 32.722 32.722 0 0 1 12.614-2.344c4.615-.09 9.2.747 13.485 2.462a19.452 19.452 0 0 1 8.98 7.246 20.804 20.804 0 0 1 3.375 10.833l-8.722.667a14.07 14.07 0 0 0-4.76-9.848 18.53 18.53 0 0 0-11.982-3.334c-5.504 0-9.514 1.008-12.031 3.025a9.073 9.073 0 0 0-3.778 7.293 7.82 7.82 0 0 0 2.667 6.098c1.751 1.594 6.323 3.227 13.717 4.9a90.778 90.778 0 0 1 15.218 4.384 20.842 20.842 0 0 1 8.864 7.01 17.073 17.073 0 0 1 2.86 9.778 18.701 18.701 0 0 1-3.142 10.34 20.688 20.688 0 0 1-9.029 7.556 31.454 31.454 0 0 1-13.248 2.697 39.555 39.555 0 0 1-15.64-2.72 21.903 21.903 0 0 1-9.895-8.184 23.203 23.203 0 0 1-3.774-12.362Z" fill="#fff" fill-rule="evenodd" data-name="Path 19"/><path d="m-6407.83-16185.986 8.722 1.08a21.283 21.283 0 0 1-7.644 11.864 25.9 25.9 0 0 1-31.586-2.509c-4.268-4.487-6.402-10.78-6.402-18.877 0-8.38 2.157-14.882 6.473-19.509a21.907 21.907 0 0 1 16.789-6.942 21.298 21.298 0 0 1 16.321 6.8c4.221 4.533 6.331 10.912 6.331 19.135 0 .501-.015 1.251-.046 2.252h-37.144a19.139 19.139 0 0 0 4.642 12.568 13.819 13.819 0 0 0 10.41 4.362c2.84.079 5.625-.78 7.927-2.444a16.187 16.187 0 0 0 5.207-7.78Zm-27.717-13.646h27.804a16.89 16.89 0 0 0-3.19-9.427 12.94 12.94 0 0 0-10.459-4.878 13.408 13.408 0 0 0-9.778 3.891 15.41 15.41 0 0 0-4.377 10.411Z" fill="#fff" fill-rule="evenodd" data-name="Path 20"/><path d="M-6394.008-16169.949v-49.803h7.602v7.082a17.904 17.904 0 0 1 15.85-8.206 20.81 20.81 0 0 1 8.278 1.617 13.02 13.02 0 0 1 5.651 4.245 16.294 16.294 0 0 1 2.627 6.237c.39 2.718.546 5.463.469 8.207v30.624h-8.444v-30.298c.117-2.609-.216-5.219-.985-7.715a8.122 8.122 0 0 0-3.493-4.08 11.113 11.113 0 0 0-5.887-1.524 13.68 13.68 0 0 0-9.309 3.424c-2.61 2.282-3.915 6.612-3.915 12.991v27.202l-8.444-.003Z" fill="#fff" fill-rule="evenodd" data-name="Path 21"/><path d="m-6349.47-16184.815 8.35-1.314a11.665 11.665 0 0 0 3.915 7.692 13.64 13.64 0 0 0 8.98 2.666 13.2 13.2 0 0 0 8.629-2.369 7.084 7.084 0 0 0 2.813-5.555 5.125 5.125 0 0 0-2.484-4.502 36.57 36.57 0 0 0-8.629-2.86 78.78 78.78 0 0 1-12.873-4.056 12.288 12.288 0 0 1-7.293-11.42 12.826 12.826 0 0 1 1.524-6.166 13.658 13.658 0 0 1 4.151-4.713 17.384 17.384 0 0 1 5.369-2.462 25.542 25.542 0 0 1 7.293-1.009 28.83 28.83 0 0 1 10.295 1.689 14.016 14.016 0 0 1 6.542 4.571 17.881 17.881 0 0 1 2.907 7.715l-8.253 1.125a9.029 9.029 0 0 0-3.26-6 11.923 11.923 0 0 0-7.622-2.158c-2.9-.25-5.805.422-8.3 1.922a5.596 5.596 0 0 0-2.486 4.502 4.668 4.668 0 0 0 1.03 2.956 7.44 7.44 0 0 0 3.236 2.25c.844.313 3.33 1.033 7.458 2.159 4.245 1.04 8.42 2.348 12.5 3.915a12.685 12.685 0 0 1 5.555 4.431 12.374 12.374 0 0 1 2.015 7.222 14.176 14.176 0 0 1-2.462 7.949 15.911 15.911 0 0 1-7.11 5.777 25.869 25.869 0 0 1-10.505 2.04c-6.472 0-11.404-1.344-14.795-4.033a18.752 18.752 0 0 1-6.49-11.964Z" fill="#fff" fill-rule="evenodd" data-name="Path 22"/><path d="m-6269.475-16185.986 8.724 1.08a21.284 21.284 0 0 1-7.644 11.864 25.9 25.9 0 0 1-31.586-2.509c-4.268-4.487-6.402-10.78-6.402-18.877 0-8.38 2.157-14.882 6.47-19.509a21.909 21.909 0 0 1 16.792-6.942 21.296 21.296 0 0 1 16.32 6.8c4.221 4.533 6.332 10.912 6.33 19.135 0 .501-.015 1.251-.046 2.252h-37.144a19.14 19.14 0 0 0 4.642 12.568 13.822 13.822 0 0 0 10.41 4.362c2.84.08 5.625-.78 7.927-2.444a16.185 16.185 0 0 0 5.207-7.78Zm-27.717-13.649h27.821a16.871 16.871 0 0 0-3.189-9.426 12.935 12.935 0 0 0-10.457-4.878 13.408 13.408 0 0 0-9.778 3.891 15.406 15.406 0 0 0-4.398 10.413Z" fill="#fff" fill-rule="evenodd" data-name="Path 23"/></g><path d="M-6449.06-16381.16c5.338 5.34 5.338 13.997 0 19.337l-1.846 1.845-34.656 34.657 2.123 2.123 19.38 19.375 41.71-41.71c14.339-14.339 14.339-37.587 0-51.926l-3.733-3.737-32.55-33.374-1.779-1.778-67.467 67.467 21.502 21.503 2.19-2.19 43.363-43.363 11.762 11.77Zm-57.43 76.833-21.502 21.502 21.936 21.94 21.502-21.503-21.935-21.94Zm-76.904-98.588-2.758 2.757c-16.338 16.342-16.338 42.833 0 59.173l1.787 1.787 34.698 34.699.173.172 2.665-2.665 18.463-18.464.374-.374-24.697-24.697-7.672-7.672a17.505 17.505 0 0 1-2.212-22.05l80.36-80.847 1.649-1.648-20.78-20.78-.723-.723-81.327 81.332Z" fill="#3693d9" fill-rule="evenodd" data-name="Path 24"/><g data-name="Group 511"><path d="M-6449.06-16381.16c5.338 5.34 5.338 13.997 0 19.337l-1.846 1.845-34.656 34.657 2.123 2.123 19.38 19.375 41.71-41.71c14.339-14.339 14.339-37.587 0-51.926l-3.733-3.737-32.55-33.374-1.779-1.778-67.467 67.467 21.502 21.503 2.19-2.19 43.363-43.363 11.762 11.77Zm-57.43 76.833-21.502 21.502 21.936 21.94 21.502-21.503-21.935-21.94Zm-76.904-98.588-2.758 2.757c-16.338 16.342-16.338 42.833 0 59.173l1.787 1.787 34.698 34.699.173.172 2.665-2.665 18.463-18.464.374-.374-24.697-24.697-7.672-7.672a17.505 17.505 0 0 1-2.212-22.05l80.36-80.847 1.649-1.648-20.78-20.78-.723-.723-81.327 81.332Z" fill="#3693d9" fill-rule="evenodd" data-name="Path 24"/></g></g></svg>